<svg id="sw-js-blob-svg" viewBox="0 0 100 100" xmlns="http://www.w3.org/2000/svg" version="1.1">
    <defs> 
        <linearGradient id="sw-gradient" x1="0" x2="1" y1="1" y2="0">
            <stop id="stop1" stop-color="rgba(248, 117, 55, 1)" offset="0%"></stop>
            <stop id="stop2" stop-color="rgba(94.605, 86.567, 73.299, 1)" offset="100%"></stop>
        </linearGradient>
    </defs>
<path fill="none" d="M22.4,-22.8C29.6,-20.8,36.2,-14.2,37.4,-6.7C38.5,0.7,34.3,9,28.9,15.3C23.6,21.5,17.2,25.7,10,28.9C2.8,32.1,-5.3,34.3,-12.3,32.4C-19.3,30.4,-25.4,24.3,-31.2,16.8C-37,9.2,-42.7,0.4,-40.7,-6.5C-38.6,-13.3,-28.9,-18.1,-20.9,-19.9C-12.8,-21.8,-6.4,-20.6,0.6,-21.4C7.7,-22.1,15.3,-24.7,22.4,-22.8Z" width="100%" height="100%" transform="translate(50 50)" stroke-width="1" style="transition: all 0.3s ease 0s;" stroke="url(#sw-gradient)"></path>
</svg>